{"asset":{"version":"2.0","generator":"Blockbench 4.7.1 glTF exporter"},"scenes":[{"nodes":[7],"name":"blockbench_export"}],"scene":0,"nodes":[{"rotation":[-0.3624380382837017,0,0,0.9320078692827984],"translation":[0.03125,-0.15625,0.234375],"name":"cube","mesh":0},{"translation":[0.0625,0.0625,-0.375],"name":"barrel","mesh":1},{"rotation":[-0.10886687485196446,0,0,0.9940563382223196],"name":"cube","mesh":2},{"translation":[-0.0625,-0.03125,-0.125],"name":"chassis","children":[1,2]},{"name":"cylinder","mesh":3},{"name":"disc","children":[4]},{"translation":[0,0.09375,0],"name":"bone","children":[0,3,5]},{"children":[6]}],"bufferViews":[{"buffer":0,"byteOffset":0,"byteLength":288,"target":34962,"byteStride":12},{"buffer":0,"byteOffset":288,"byteLength":288,"target":34962,"byteStride":12},{"buffer":0,"byteOffset":576,"byteLength":192,"target":34962,"byteStride":8},{"buffer":0,"byteOffset":768,"byteLength":72,"target":34963},{"buffer":0,"byteOffset":840,"byteLength":288,"target":34962,"byteStride":12},{"buffer":0,"byteOffset":1128,"byteLength":288,"target":34962,"byteStride":12},{"buffer":0,"byteOffset":1416,"byteLength":192,"target":34962,"byteStride":8},{"buffer":0,"byteOffset":1608,"byteLength":72,"target":34963},{"buffer":0,"byteOffset":1680,"byteLength":288,"target":34962,"byteStride":12},{"buffer":0,"byteOffset":1968,"byteLength":288,"target":34962,"byteStride":12},{"buffer":0,"byteOffset":2256,"byteLength":192,"target":34962,"byteStride":8},{"buffer":0,"byteOffset":2448,"byteLength":72,"target":34963},{"buffer":0,"byteOffset":2520,"byteLength":1440,"target":34962,"byteStride":12},{"buffer":0,"byteOffset":3960,"byteLength":1440,"target":34962,"byteStride":12},{"buffer":0,"byteOffset":5400,"byteLength":960,"target":34962,"byteStride":8},{"buffer":0,"byteOffset":6360,"byteLength":288,"target":34963},{"buffer":0,"byteOffset":6648,"byteLength":24},{"buffer":0,"byteOffset":6672,"byteLength":96},{"buffer":0,"byteOffset":6768,"byteLength":20},{"buffer":0,"byteOffset":6788,"byteLength":60},{"buffer":0,"byteOffset":6848,"byteLength":32},{"buffer":0,"byteOffset":6880,"byteLength":128},{"buffer":0,"byteOffset":7008,"byteLength":20},{"buffer":0,"byteOffset":7028,"byteLength":60},{"buffer":0,"byteOffset":7088,"byteLength":12},{"buffer":0,"byteOffset":7100,"byteLength":48},{"buffer":0,"byteOffset":7148,"byteLength":120},{"buffer":0,"byteOffset":7268,"byteLength":360},{"buffer":0,"byteOffset":7628,"byteLength":24},{"buffer":0,"byteOffset":7652,"byteLength":96},{"buffer":0,"byteOffset":7748,"byteLength":56},{"buffer":0,"byteOffset":7804,"byteLength":168},{"buffer":0,"byteOffset":7972,"byteLength":12},{"buffer":0,"byteOffset":7984,"byteLength":36}],"buffers":[{"byteLength":8020,"uri":"data:application/octet-stream;base64,"}],"accessors":[{"bufferView":0,"componentType":5126,"count":24,"max":[0,0.375,0],"min":[-0.0625,0,-0.0625],"type":"VEC3"},{"bufferView":1,"componentType":5126,"count":24,"max":[1,1,1],"min":[-1,-1,-1],"type":"VEC3"},{"bufferView":2,"componentType":5126,"count":24,"max":[0.53125,0.78125],"min":[0.15625,0.4375],"type":"VEC2"},{"bufferView":3,"componentType":5123,"count":36,"max":[23],"min":[0],"type":"SCALAR"},{"bufferView":4,"componentType":5126,"count":24,"max":[0.0625,0.0625,0.5625],"min":[-0.0625,0,-0.5],"type":"VEC3"},{"bufferView":5,"componentType":5126,"count":24,"max":[1,1,1],"min":[-1,-1,-1],"type":"VEC3"},{"bufferView":6,"componentType":5126,"count":24,"max":[0.9375,0.53125],"min":[0.21875,0],"type":"VEC2"},{"bufferView":7,"componentType":5123,"count":36,"max":[23],"min":[0],"type":"SCALAR"},{"bufferView":8,"componentType":5126,"count":24,"max":[0.1875,0.1875,0.1875],"min":[-0.0625,-0.06101850047707558,-0.0625],"type":"VEC3"},{"bufferView":9,"componentType":5126,"count":24,"max":[0.9922637343406677,1,0.9985218644142151],"min":[-0.9922552704811096,-0.9289720058441162,-0.9990732073783875],"type":"VEC3"},{"bufferView":10,"componentType":5126,"count":24,"max":[0.5625,0.6875],"min":[0,0.125],"type":"VEC2"},{"bufferView":11,"componentType":5123,"count":36,"max":[23],"min":[0],"type":"SCALAR"},{"bufferView":12,"componentType":5126,"count":120,"max":[0.1875,0.125,0.1875],"min":[-0.1875,0,-0.1875],"type":"VEC3"},{"bufferView":13,"componentType":5126,"count":120,"max":[1,1,1],"min":[-1,-1,-1],"type":"VEC3"},{"bufferView":14,"componentType":5126,"count":120,"max":[0.7472312450408936,0.59375],"min":[0,0],"type":"VEC2"},{"bufferView":15,"componentType":5123,"count":144,"max":[119],"min":[0],"type":"SCALAR"},{"bufferView":16,"componentType":5126,"count":6,"max":[2.0833332538604736],"min":[0],"type":"SCALAR"},{"bufferView":17,"componentType":5126,"count":6,"max":[0.41949376463890076,0,0,1],"min":[0,0,0,0.9077582359313965],"type":"VEC4"},{"bufferView":18,"componentType":5126,"count":5,"max":[2.0833332538604736],"min":[0],"type":"SCALAR"},{"bufferView":19,"componentType":5126,"count":5,"max":[0,0.28125,0],"min":[0,0.09375,0],"type":"VEC3"},{"bufferView":20,"componentType":5126,"count":8,"max":[2.0833332538604736],"min":[0],"type":"SCALAR"},{"bufferView":21,"componentType":5126,"count":8,"max":[0.3735029697418213,0,0,1],"min":[-0.7798844575881958,0,0,0.6259234547615051],"type":"VEC4"},{"bufferView":22,"componentType":5126,"count":5,"max":[1.9166666269302368],"min":[0],"type":"SCALAR"},{"bufferView":23,"componentType":5126,"count":5,"max":[-0.0625,0.06878072023391724,-0.05783754959702492],"min":[-0.0625,-0.1366739273071289,-0.2687241733074188],"type":"VEC3"},{"bufferView":24,"componentType":5126,"count":3,"max":[1.7083333730697632],"min":[0],"type":"SCALAR"},{"bufferView":25,"componentType":5126,"count":3,"max":[0,0,0,1],"min":[-0.537299633026123,0,0,0.8433914184570312],"type":"VEC4"},{"bufferView":26,"componentType":5126,"count":30,"max":[1.7083333730697632],"min":[0],"type":"SCALAR"},{"bufferView":27,"componentType":5126,"count":30,"max":[0,0.165431946516037,0.4368433952331543],"min":[0,-0.6850544810295105,-0.08617451786994934],"type":"VEC3"},{"bufferView":28,"componentType":5126,"count":6,"max":[0.75],"min":[0],"type":"SCALAR"},{"bufferView":29,"componentType":5126,"count":6,"max":[0.6343932747840881,0,0,1],"min":[0,0,0,0.7730104327201843],"type":"VEC4"},{"bufferView":30,"componentType":5126,"count":14,"max":[0.75],"min":[0],"type":"SCALAR"},{"bufferView":31,"componentType":5126,"count":14,"max":[0,0.09375,0.25],"min":[0,0.09375,0],"type":"VEC3"},{"bufferView":32,"componentType":5126,"count":3,"max":[0.75],"min":[0],"type":"SCALAR"},{"bufferView":33,"componentType":5126,"count":3,"max":[0,0,0.17419704794883728],"min":[0,-0.03051900491118431,0],"type":"VEC3"}],"materials":[{"pbrMetallicRoughness":{"metallicFactor":0,"roughnessFactor":1,"baseColorTexture":{"index":0}},"alphaMode":"MASK","alphaCutoff":0.05,"doubleSided":true}],"textures":[{"sampler":0,"source":0,"name":"railgun.png"}],"samplers":[{"magFilter":9728,"minFilter":9728,"wrapS":33071,"wrapT":33071}],"images":[{"mimeType":"image/png","uri":"data:image/png;base64,"}],"meshes":[{"primitives":[{"mode":4,"attributes":{"POSITION":0,"NORMAL":1,"TEXCOORD_0":2},"indices":3,"material":0}]},{"primitives":[{"mode":4,"attributes":{"POSITION":4,"NORMAL":5,"TEXCOORD_0":6},"indices":7,"material":0}]},{"primitives":[{"mode":4,"attributes":{"POSITION":8,"NORMAL":9,"TEXCOORD_0":10},"indices":11,"material":0}]},{"primitives":[{"mode":4,"attributes":{"POSITION":12,"NORMAL":13,"TEXCOORD_0":14},"indices":15,"material":0}]}],"animations":[{"name":"reload","samplers":[{"input":16,"output":17,"interpolation":"LINEAR"},{"input":18,"output":19,"interpolation":"LINEAR"},{"input":20,"output":21,"interpolation":"LINEAR"},{"input":22,"output":23,"interpolation":"LINEAR"},{"input":24,"output":25,"interpolation":"LINEAR"},{"input":26,"output":27,"interpolation":"LINEAR"}],"channels":[{"sampler":0,"target":{"node":6,"path":"rotation"}},{"sampler":1,"target":{"node":6,"path":"translation"}},{"sampler":2,"target":{"node":3,"path":"rotation"}},{"sampler":3,"target":{"node":3,"path":"translation"}},{"sampler":4,"target":{"node":5,"path":"rotation"}},{"sampler":5,"target":{"node":5,"path":"translation"}}]},{"name":"attack","samplers":[{"input":28,"output":29,"interpolation":"LINEAR"},{"input":30,"output":31,"interpolation":"LINEAR"},{"input":32,"output":33,"interpolation":"LINEAR"}],"channels":[{"sampler":0,"target":{"node":6,"path":"rotation"}},{"sampler":1,"target":{"node":6,"path":"translation"}},{"sampler":2,"target":{"node":5,"path":"translation"}}]}]}