mtllib door.mtl
o Default
v 1 0 0
v 1 1 0
v 2 1 0
v 2 0 0
v 1 1 0
v 2 2 -1.7763568394002505e-15
v 1 2 -1.7763568394002505e-15
v 2 1 0
v 1 2 -1.7763568394002505e-15
v 2 3 0
v 1 3 0
v 2 2 -1.7763568394002505e-15
v 0 2 0
v 1 3 0
v 0 3 0
v 1 2 -1.7763568394002505e-15
v 0 1 0
v 1 2 -1.7763568394002505e-15
v 0 2 0
v 1 1 0
v 0 0 0
v 1 1 0
v 0 1 0
v 1 0 0
v -2.0095699972513033e-15 0 -1
v 0 1 0
v -2.0095699972513033e-15 1 -1
v 0 0 0
v -2.0095699972513033e-15 1 -1
v 0 2 0
v -2.648235804096361e-16 2 -1
v 0 1 0
v -2.648235804096361e-16 2 -1
v 0 3 0
v -2.0634436220372818e-15 3 -1
v 0 2 0
v 2 0 0
v 2 1 -1
v 2 1 0
v 2 0 -1
v 2 1 0
v 2 2 -1
v 2 2 -1.7763568394002505e-15
v 2 1 -1
v 2 2 -1.7763568394002505e-15
v 2 3 -1
v 2 3 0
v 2 2 -1
v 1 -0.00002958720870083198 -0.9999499917030334
v 2 0 0
v 1 0 0
v 2 0 -1
v -2.0095699972513033e-15 0 -1
v 1 0 0
v 0 0 0
v 1 -0.00002958720870083198 -0.9999499917030334
v 2 0 -1
v 1 1 -1
v 2 1 -1
v 1 -0.00002958720870083198 -0.9999499917030334
v 2 1 -1
v 1 2 -1
v 2 2 -1
v 1 1 -1
v 2 2 -1
v 1 3 -1
v 2 3 -1
v 1 2 -1
v 1 2 -1
v -2.0634436220372818e-15 3 -1
v 1 3 -1
v -2.648235804096361e-16 2 -1
v 1 1 -1
v -2.648235804096361e-16 2 -1
v 1 2 -1
v -2.0095699972513033e-15 1 -1
v 1 -0.00002958720870083198 -0.9999499917030334
v -2.0095699972513033e-15 1 -1
v 1 1 -1
v -2.0095699972513033e-15 0 -1
v 1 3 0
v 2 3 -1
v 1 3 -1
v 2 3 0
v 0 3 0
v 1 3 -1
v -2.0634436220372818e-15 3 -1
v 1 3 5.797216484637602e-9
vt 0.25 0.875
vt 0.1875 0.9375
vt 0.1875 0.875
vt 0.25 0.875
vt 0.25 0.9375
vt 0.1875 0.9375
vt 0.25 0.875
vt 0.1875 0.9375
vt 0.1875 0.875
vt 0.25 0.875
vt 0.25 0.9375
vt 0.1875 0.9375
vt 0.25 0.875
vt 0.1875 0.9375
vt 0.1875 0.875
vt 0.25 0.875
vt 0.25 0.9375
vt 0.1875 0.9375
vt 0.25 0.875
vt 0.1875 0.9375
vt 0.1875 0.875
vt 0.25 0.875
vt 0.25 0.9375
vt 0.1875 0.9375
vt 0.25 0.875
vt 0.1875 0.9375
vt 0.1875 0.875
vt 0.25 0.875
vt 0.25 0.9375
vt 0.1875 0.9375
vt 0.25 0.875
vt 0.1875 0.9375
vt 0.1875 0.875
vt 0.25 0.875
vt 0.25 0.9375
vt 0.1875 0.9375
vt 0.25 0.875
vt 0.1875 0.9375
vt 0.1875 0.875
vt 0.25 0.875
vt 0.25 0.9375
vt 0.1875 0.9375
vt 0.25 0.875
vt 0.1875 0.9375
vt 0.1875 0.875
vt 0.25 0.875
vt 0.25 0.9375
vt 0.1875 0.9375
vt 0.25 0.875
vt 0.1875 0.9375
vt 0.1875 0.875
vt 0.25 0.875
vt 0.25 0.9375
vt 0.1875 0.9375
vt 0.25 0.875
vt 0.1875 0.9375
vt 0.1875 0.875
vt 0.25 0.875
vt 0.25 0.9375
vt 0.1875 0.9375
vt 0.25 0.875
vt 0.1875 0.9375
vt 0.1875 0.875
vt 0.25 0.875
vt 0.25 0.9375
vt 0.1875 0.9375
vt 0.25 0.875
vt 0.1875 0.9375
vt 0.1875 0.875
vt 0.25 0.875
vt 0.25 0.9375
vt 0.1875 0.9375
vt 0.25 0.9375
vt 0.1875 0.875
vt 0.25 0.875
vt 0.25 0.9375
vt 0.1875 0.9375
vt 0.1875 0.875
vt 0.25 0.9375
vt 0.1875 0.875
vt 0.25 0.875
vt 0.25 0.9375
vt 0.1875 0.9375
vt 0.1875 0.875
vt 0.1875 0.9375
vt 0.25 0.875
vt 0.25 0.9375
vt 0.1875 0.9375
vt 0.1875 0.875
vt 0.25 0.875
vt 0.1875 0.9375
vt 0.25 0.875
vt 0.25 0.9375
vt 0.1875 0.9375
vt 0.1875 0.875
vt 0.25 0.875
vt 0.1875 0.9375
vt 0.25 0.875
vt 0.25 0.9375
vt 0.1875 0.9375
vt 0.1875 0.875
vt 0.25 0.875
vt 0.1875 0.9375
vt 0.25 0.875
vt 0.25 0.9375
vt 0.1875 0.9375
vt 0.1875 0.875
vt 0.25 0.875
vt 0.1875 0.9375
vt 0.25 0.875
vt 0.25 0.9375
vt 0.1875 0.9375
vt 0.1875 0.875
vt 0.25 0.875
vt 0.1875 0.9375
vt 0.25 0.875
vt 0.25 0.9375
vt 0.1875 0.9375
vt 0.1875 0.875
vt 0.25 0.875
vt 0.1875 0.875
vt 0.25 0.9375
vt 0.1875 0.9375
vt 0.1875 0.875
vt 0.25 0.875
vt 0.25 0.9375
vt 0.1875 0.875
vt 0.25 0.9375
vt 0.1875 0.9375
vt 0.1875 0.875
vt 0.25 0.875
vt 0.25 0.9375
vn 0 0 1
vn 0 0 1
vn 0 0 1
vn 0 0 1
vn 0 0 1
vn 0 0 1
vn 0 1.7763568394002505e-15 1
vn 0 1.7763568394002505e-15 1
vn 0 1.7763568394002505e-15 1
vn 0 1.7763568394002505e-15 1
vn 0 1.7763568394002505e-15 1
vn 0 1.7763568394002505e-15 1
vn 0 -1.7763568394002505e-15 1
vn 0 -1.7763568394002505e-15 1
vn 0 -1.7763568394002505e-15 1
vn 0 -1.7763568394002505e-15 1
vn 0 -1.7763568394002505e-15 1
vn 0 -1.7763568394002505e-15 1
vn 0 0 1
vn 0 0 1
vn 0 0 1
vn 1.7763568394002505e-15 -1.7763568394002505e-15 1
vn 1.7763568394002505e-15 -1.7763568394002505e-15 1
vn 1.7763568394002505e-15 -1.7763568394002505e-15 1
vn 1.7763568394002505e-15 0 1
vn 1.7763568394002505e-15 0 1
vn 1.7763568394002505e-15 0 1
vn 0 1.7763568394002505e-15 1
vn 0 1.7763568394002505e-15 1
vn 0 1.7763568394002505e-15 1
vn 0 0 1
vn 0 0 1
vn 0 0 1
vn 0 0 1
vn 0 0 1
vn 0 0 1
vn -1 0 2.0095699972513033e-15
vn -1 0 2.0095699972513033e-15
vn -1 0 2.0095699972513033e-15
vn -1 0 2.0095699972513033e-15
vn -1 0 2.0095699972513033e-15
vn -1 0 2.0095699972513033e-15
vn -1 1.7447464168416672e-15 2.648235804096361e-16
vn -1 1.7447464168416672e-15 2.648235804096361e-16
vn -1 1.7447464168416672e-15 2.648235804096361e-16
vn -1 0 2.0095699972513033e-15
vn -1 0 2.0095699972513033e-15
vn -1 0 2.0095699972513033e-15
vn -1 -1.7986200416276457e-15 2.0634436220372818e-15
vn -1 -1.7986200416276457e-15 2.0634436220372818e-15
vn -1 -1.7986200416276457e-15 2.0634436220372818e-15
vn -1 0 2.648235804096361e-16
vn -1 0 2.648235804096361e-16
vn -1 0 2.648235804096361e-16
vn 1 0 0
vn 1 0 0
vn 1 0 0
vn 1 0 0
vn 1 0 0
vn 1 0 0
vn 1 0 0
vn 1 0 0
vn 1 0 0
vn 1 0 0
vn 1 0 0
vn 1 0 0
vn 1 0 0
vn 1 0 0
vn 1 0 0
vn 1 0 0
vn 1 0 0
vn 1 0 0
vn 0 -0.9999999995622547 0.000029588688367795066
vn 0 -0.9999999995622547 0.000029588688367795066
vn 0 -0.9999999995622547 0.000029588688367795066
vn 0.000029587208687881615 -0.9999999995622986 0
vn 0.000029587208687881615 -0.9999999995622986 0
vn 0.000029587208687881615 -0.9999999995622986 0
vn 0 -1 0
vn 0 -1 0
vn 0 -1 0
vn -0.0000295886883548427 -0.9999999991245094 0.000029588688354842756
vn -0.0000295886883548427 -0.9999999991245094 0.000029588688354842756
vn -0.0000295886883548427 -0.9999999991245094 0.000029588688354842756
vn 0 0 -1
vn 0 0 -1
vn 0 0 -1
vn -0.000050006817279358585 -0.000050006817279358585 -0.9999999974993181
vn -0.000050006817279358585 -0.000050006817279358585 -0.9999999974993181
vn -0.000050006817279358585 -0.000050006817279358585 -0.9999999974993181
vn 0 0 -1
vn 0 0 -1
vn 0 0 -1
vn 0 0 -1
vn 0 0 -1
vn 0 0 -1
vn 0 0 -1
vn 0 0 -1
vn 0 0 -1
vn 0 0 -1
vn 0 0 -1
vn 0 0 -1
vn 0 0 -1
vn 0 0 -1
vn 0 0 -1
vn 0 0 -1
vn 0 0 -1
vn 0 0 -1
vn 0 0 -1
vn 0 0 -1
vn 0 0 -1
vn 0 0 -1
vn 0 0 -1
vn 0 0 -1
vn 0 -0.000050006817341884165 -0.9999999987496593
vn 0 -0.000050006817341884165 -0.9999999987496593
vn 0 -0.000050006817341884165 -0.9999999987496593
vn 0.000050008296904021516 0 -0.9999999987495851
vn 0.000050008296904021516 0 -0.9999999987495851
vn 0.000050008296904021516 0 -0.9999999987495851
vn 0 1 0
vn 0 1 0
vn 0 1 0
vn 0 1 0
vn 0 1 0
vn 0 1 0
vn 0 1 0
vn 0 1 0
vn 0 1 0
vn 0 1 0
vn 0 1 0
vn 0 1 0
g Scene
usemtl 0
f 1/1/1 3/2/2 2/3/3
f 1/4/4 4/5/5 3/6/6
f 5/7/7 6/8/8 7/9/9
f 5/10/10 8/11/11 6/12/12
f 9/13/13 10/14/14 11/15/15
f 9/16/16 12/17/17 10/18/18
f 13/19/19 14/20/20 15/21/21
f 13/22/22 16/23/23 14/24/24
f 17/25/25 18/26/26 19/27/27
f 17/28/28 20/29/29 18/30/30
f 21/31/31 22/32/32 23/33/33
f 21/34/34 24/35/35 22/36/36
f 25/37/37 26/38/38 27/39/39
f 25/40/40 28/41/41 26/42/42
f 29/43/43 30/44/44 31/45/45
f 29/46/46 32/47/47 30/48/48
f 33/49/49 34/50/50 35/51/51
f 33/52/52 36/53/53 34/54/54
f 37/55/55 38/56/56 39/57/57
f 37/58/58 40/59/59 38/60/60
f 41/61/61 42/62/62 43/63/63
f 41/64/64 44/65/65 42/66/66
f 45/67/67 46/68/68 47/69/69
f 45/70/70 48/71/71 46/72/72
f 49/73/73 50/74/74 51/75/75
f 49/76/76 52/77/77 50/78/78
f 53/79/79 54/80/80 55/81/81
f 53/82/82 56/83/83 54/84/84
f 57/85/85 58/86/86 59/87/87
f 57/88/88 60/89/89 58/90/90
f 61/91/91 62/92/92 63/93/93
f 61/94/94 64/95/95 62/96/96
f 65/97/97 66/98/98 67/99/99
f 65/100/100 68/101/101 66/102/102
f 69/103/103 70/104/104 71/105/105
f 69/106/106 72/107/107 70/108/108
f 73/109/109 74/110/110 75/111/111
f 73/112/112 76/113/113 74/114/114
f 77/115/115 78/116/116 79/117/117
f 77/118/118 80/119/119 78/120/120
f 81/121/121 82/122/122 83/123/123
f 81/124/124 84/125/125 82/126/126
f 85/127/127 86/128/128 87/129/129
f 85/130/130 88/131/131 86/132/132
