{"asset":{"version":"2.0","generator":"Blockbench 4.7.1 glTF exporter"},"scenes":[{"nodes":[6],"name":"blockbench_export"}],"scene":0,"nodes":[{"translation":[0.0625,0.1875,0.25625],"name":"cube","mesh":0},{"rotation":[0.3624380382837017,0,0,0.9320078692827984],"translation":[0,0.07499999999999996,0.03125],"name":"cube","mesh":1},{"rotation":[0.3420201433256686,0,0,0.9396926207859084],"name":"cube","mesh":2},{"rotation":[0.08715574274765817,0,0,0.9961946980917455],"name":"cube","mesh":3},{"translation":[-0.0062500000000000056,0.2749999999999998,0.19999999999999998],"name":"bone2","children":[3]},{"translation":[-0.0625,0,0],"name":"bone","children":[0,1,2,4]},{"children":[5]}],"bufferViews":[{"buffer":0,"byteOffset":0,"byteLength":288,"target":34962,"byteStride":12},{"buffer":0,"byteOffset":288,"byteLength":288,"target":34962,"byteStride":12},{"buffer":0,"byteOffset":576,"byteLength":192,"target":34962,"byteStride":8},{"buffer":0,"byteOffset":768,"byteLength":72,"target":34963},{"buffer":0,"byteOffset":840,"byteLength":288,"target":34962,"byteStride":12},{"buffer":0,"byteOffset":1128,"byteLength":288,"target":34962,"byteStride":12},{"buffer":0,"byteOffset":1416,"byteLength":192,"target":34962,"byteStride":8},{"buffer":0,"byteOffset":1608,"byteLength":72,"target":34963},{"buffer":0,"byteOffset":1680,"byteLength":288,"target":34962,"byteStride":12},{"buffer":0,"byteOffset":1968,"byteLength":288,"target":34962,"byteStride":12},{"buffer":0,"byteOffset":2256,"byteLength":192,"target":34962,"byteStride":8},{"buffer":0,"byteOffset":2448,"byteLength":72,"target":34963},{"buffer":0,"byteOffset":2520,"byteLength":288,"target":34962,"byteStride":12},{"buffer":0,"byteOffset":2808,"byteLength":288,"target":34962,"byteStride":12},{"buffer":0,"byteOffset":3096,"byteLength":192,"target":34962,"byteStride":8},{"buffer":0,"byteOffset":3288,"byteLength":72,"target":34963},{"buffer":0,"byteOffset":3360,"byteLength":20},{"buffer":0,"byteOffset":3380,"byteLength":80},{"buffer":0,"byteOffset":3460,"byteLength":4},{"buffer":0,"byteOffset":3464,"byteLength":12},{"buffer":0,"byteOffset":3476,"byteLength":4},{"buffer":0,"byteOffset":3480,"byteLength":12},{"buffer":0,"byteOffset":3492,"byteLength":24},{"buffer":0,"byteOffset":3516,"byteLength":96},{"buffer":0,"byteOffset":3612,"byteLength":4},{"buffer":0,"byteOffset":3616,"byteLength":12},{"buffer":0,"byteOffset":3628,"byteLength":52},{"buffer":0,"byteOffset":3680,"byteLength":208},{"buffer":0,"byteOffset":3888,"byteLength":20},{"buffer":0,"byteOffset":3908,"byteLength":60},{"buffer":0,"byteOffset":3968,"byteLength":32},{"buffer":0,"byteOffset":4000,"byteLength":128},{"buffer":0,"byteOffset":4128,"byteLength":20},{"buffer":0,"byteOffset":4148,"byteLength":60}],"buffers":[{"byteLength":4208,"uri":"data:application/octet-stream;base64,"}],"accessors":[{"bufferView":0,"componentType":5126,"count":24,"max":[0.0625,0.125,0.625],"min":[-0.0625,0,-0.0625],"type":"VEC3"},{"bufferView":1,"componentType":5126,"count":24,"max":[1,1,1],"min":[-1,-1,-1],"type":"VEC3"},{"bufferView":2,"componentType":5126,"count":24,"max":[0.625,0.59375],"min":[0.0625,0],"type":"VEC2"},{"bufferView":3,"componentType":5123,"count":36,"max":[23],"min":[0],"type":"SCALAR"},{"bufferView":4,"componentType":5126,"count":24,"max":[0.1875,0.25,0],"min":[-0.0625,0,-0.0625],"type":"VEC3"},{"bufferView":5,"componentType":5126,"count":24,"max":[1,1,1],"min":[-1,-1,-1],"type":"VEC3"},{"bufferView":6,"componentType":5126,"count":24,"max":[0.59375,0.5625],"min":[0.125,0.1875],"type":"VEC2"},{"bufferView":7,"componentType":5123,"count":36,"max":[23],"min":[0],"type":"SCALAR"},{"bufferView":8,"componentType":5126,"count":24,"max":[0.125,0.25,0.0625],"min":[0,0,-0.0625],"type":"VEC3"},{"bufferView":9,"componentType":5126,"count":24,"max":[1,1,1],"min":[-1,-1,-1],"type":"VEC3"},{"bufferView":10,"componentType":5126,"count":24,"max":[0.5625,0.5625],"min":[0,0.1875],"type":"VEC2"},{"bufferView":11,"componentType":5123,"count":36,"max":[23],"min":[0],"type":"SCALAR"},{"bufferView":12,"componentType":5126,"count":24,"max":[0.1875,0.25,0],"min":[-0.0625,0,-0.0625],"type":"VEC3"},{"bufferView":13,"componentType":5126,"count":24,"max":[1,1,1],"min":[-1,-1,-1],"type":"VEC3"},{"bufferView":14,"componentType":5126,"count":24,"max":[0.625,0.625],"min":[0,0.3125],"type":"VEC2"},{"bufferView":15,"componentType":5123,"count":36,"max":[23],"min":[0],"type":"SCALAR"},{"bufferView":16,"componentType":5126,"count":5,"max":[0.5833333134651184],"min":[0],"type":"SCALAR"},{"bufferView":17,"componentType":5126,"count":5,"max":[0,0,0,1],"min":[-0.4617486000061035,0,0,0.8870108127593994],"type":"VEC4"},{"bufferView":18,"componentType":5126,"count":1,"max":[0],"min":[0],"type":"SCALAR"},{"bufferView":19,"componentType":5126,"count":1,"max":[-0.0625,0,0],"min":[-0.0625,0,0],"type":"VEC3"},{"bufferView":20,"componentType":5126,"count":1,"max":[0],"min":[0],"type":"SCALAR"},{"bufferView":21,"componentType":5126,"count":1,"max":[1,1,1],"min":[1,1,1],"type":"VEC3"},{"bufferView":22,"componentType":5126,"count":6,"max":[0.5833333134651184],"min":[0],"type":"SCALAR"},{"bufferView":23,"componentType":5126,"count":6,"max":[0,0,0,1],"min":[-0.8870108127593994,0,0,0.4617486000061035],"type":"VEC4"},{"bufferView":24,"componentType":5126,"count":1,"max":[0.25],"min":[0.25],"type":"SCALAR"},{"bufferView":25,"componentType":5126,"count":1,"max":[-0.0062500000931322575,0.3261969983577728,0.16415147483348846],"min":[-0.0062500000931322575,0.3261969983577728,0.16415147483348846],"type":"VEC3"},{"bufferView":26,"componentType":5126,"count":13,"max":[0.6666666865348816],"min":[0],"type":"SCALAR"},{"bufferView":27,"componentType":5126,"count":13,"max":[0,0,0,1],"min":[-0.6915130615234375,0,0,0.7223639488220215],"type":"VEC4"},{"bufferView":28,"componentType":5126,"count":5,"max":[0.6666666865348816],"min":[0],"type":"SCALAR"},{"bufferView":29,"componentType":5126,"count":5,"max":[-0.0625,0.0625,0],"min":[-0.0625,-0.3125,-0.0625],"type":"VEC3"},{"bufferView":30,"componentType":5126,"count":8,"max":[2.0416667461395264],"min":[0],"type":"SCALAR"},{"bufferView":31,"componentType":5126,"count":8,"max":[0.6259234547615051,0,0,1],"min":[-0.8968727588653564,0,0,0.44228869676589966],"type":"VEC4"},{"bufferView":32,"componentType":5126,"count":5,"max":[2.0416667461395264],"min":[0],"type":"SCALAR"},{"bufferView":33,"componentType":5126,"count":5,"max":[-0.0062500000931322575,0.3556250035762787,0.20000000298023224],"min":[-0.0062500000931322575,0.2750000059604645,0.18251068890094757],"type":"VEC3"}],"materials":[{"pbrMetallicRoughness":{"metallicFactor":0,"roughnessFactor":1,"baseColorTexture":{"index":0}},"alphaMode":"MASK","alphaCutoff":0.05,"doubleSided":true}],"textures":[{"sampler":0,"source":0,"name":"expert.png"}],"samplers":[{"magFilter":9728,"minFilter":9728,"wrapS":33071,"wrapT":33071}],"images":[{"mimeType":"image/png","uri":"data:image/png;base64,"}],"meshes":[{"primitives":[{"mode":4,"attributes":{"POSITION":0,"NORMAL":1,"TEXCOORD_0":2},"indices":3,"material":0}]},{"primitives":[{"mode":4,"attributes":{"POSITION":4,"NORMAL":5,"TEXCOORD_0":6},"indices":7,"material":0}]},{"primitives":[{"mode":4,"attributes":{"POSITION":8,"NORMAL":9,"TEXCOORD_0":10},"indices":11,"material":0}]},{"primitives":[{"mode":4,"attributes":{"POSITION":12,"NORMAL":13,"TEXCOORD_0":14},"indices":15,"material":0}]}],"animations":[{"name":"attack","samplers":[{"input":16,"output":17,"interpolation":"LINEAR"},{"input":18,"output":19,"interpolation":"LINEAR"},{"input":20,"output":21,"interpolation":"LINEAR"},{"input":22,"output":23,"interpolation":"LINEAR"},{"input":24,"output":25,"interpolation":"LINEAR"}],"channels":[{"sampler":0,"target":{"node":5,"path":"rotation"}},{"sampler":1,"target":{"node":5,"path":"translation"}},{"sampler":2,"target":{"node":5,"path":"scale"}},{"sampler":3,"target":{"node":4,"path":"rotation"}},{"sampler":4,"target":{"node":4,"path":"translation"}}]},{"name":"reload","samplers":[{"input":26,"output":27,"interpolation":"LINEAR"},{"input":28,"output":29,"interpolation":"LINEAR"},{"input":30,"output":31,"interpolation":"LINEAR"},{"input":32,"output":33,"interpolation":"LINEAR"}],"channels":[{"sampler":0,"target":{"node":5,"path":"rotation"}},{"sampler":1,"target":{"node":5,"path":"translation"}},{"sampler":2,"target":{"node":4,"path":"rotation"}},{"sampler":3,"target":{"node":4,"path":"translation"}}]}]}