{"asset":{"version":"2.0","generator":"Blockbench 4.7.1 glTF exporter"},"scenes":[{"nodes":[9],"name":"blockbench_export"}],"scene":0,"nodes":[{"rotation":[-0.4999999999999998,0,0,0.8660254037844388],"translation":[0.015625,-0.09375,0.296875],"name":"cube","mesh":0},{"rotation":[-0.4999999999999998,0,0,0.8660254037844388],"translation":[0.078125,-0.09375,0.296875],"name":"cube","mesh":1},{"translation":[0.140625,0.078125,0.125],"name":"cube","mesh":2},{"translation":[0.078125,0.078125,0.125],"name":"cube","mesh":3},{"translation":[0.0625,0.09375,0],"name":"cube","mesh":4},{"translation":[-0.0625,-0.03125,-0.125],"name":"chassis","children":[2,3,4]},{"translation":[0,0.046875,0],"name":"cylinder","mesh":5},{"name":"disc","children":[6]},{"translation":[0,0.09375,0],"name":"bone","children":[0,1,5,7]},{"children":[8]}],"bufferViews":[{"buffer":0,"byteOffset":0,"byteLength":288,"target":34962,"byteStride":12},{"buffer":0,"byteOffset":288,"byteLength":288,"target":34962,"byteStride":12},{"buffer":0,"byteOffset":576,"byteLength":192,"target":34962,"byteStride":8},{"buffer":0,"byteOffset":768,"byteLength":72,"target":34963},{"buffer":0,"byteOffset":840,"byteLength":288,"target":34962,"byteStride":12},{"buffer":0,"byteOffset":1128,"byteLength":288,"target":34962,"byteStride":12},{"buffer":0,"byteOffset":1416,"byteLength":192,"target":34962,"byteStride":8},{"buffer":0,"byteOffset":1608,"byteLength":72,"target":34963},{"buffer":0,"byteOffset":1680,"byteLength":288,"target":34962,"byteStride":12},{"buffer":0,"byteOffset":1968,"byteLength":288,"target":34962,"byteStride":12},{"buffer":0,"byteOffset":2256,"byteLength":192,"target":34962,"byteStride":8},{"buffer":0,"byteOffset":2448,"byteLength":72,"target":34963},{"buffer":0,"byteOffset":2520,"byteLength":288,"target":34962,"byteStride":12},{"buffer":0,"byteOffset":2808,"byteLength":288,"target":34962,"byteStride":12},{"buffer":0,"byteOffset":3096,"byteLength":192,"target":34962,"byteStride":8},{"buffer":0,"byteOffset":3288,"byteLength":72,"target":34963},{"buffer":0,"byteOffset":3360,"byteLength":288,"target":34962,"byteStride":12},{"buffer":0,"byteOffset":3648,"byteLength":288,"target":34962,"byteStride":12},{"buffer":0,"byteOffset":3936,"byteLength":192,"target":34962,"byteStride":8},{"buffer":0,"byteOffset":4128,"byteLength":72,"target":34963},{"buffer":0,"byteOffset":4200,"byteLength":1440,"target":34962,"byteStride":12},{"buffer":0,"byteOffset":5640,"byteLength":1440,"target":34962,"byteStride":12},{"buffer":0,"byteOffset":7080,"byteLength":960,"target":34962,"byteStride":8},{"buffer":0,"byteOffset":8040,"byteLength":288,"target":34963},{"buffer":0,"byteOffset":8328,"byteLength":24},{"buffer":0,"byteOffset":8352,"byteLength":96},{"buffer":0,"byteOffset":8448,"byteLength":20},{"buffer":0,"byteOffset":8468,"byteLength":60},{"buffer":0,"byteOffset":8528,"byteLength":32},{"buffer":0,"byteOffset":8560,"byteLength":128},{"buffer":0,"byteOffset":8688,"byteLength":20},{"buffer":0,"byteOffset":8708,"byteLength":60},{"buffer":0,"byteOffset":8768,"byteLength":12},{"buffer":0,"byteOffset":8780,"byteLength":48},{"buffer":0,"byteOffset":8828,"byteLength":120},{"buffer":0,"byteOffset":8948,"byteLength":360},{"buffer":0,"byteOffset":9308,"byteLength":24},{"buffer":0,"byteOffset":9332,"byteLength":96},{"buffer":0,"byteOffset":9428,"byteLength":56},{"buffer":0,"byteOffset":9484,"byteLength":168},{"buffer":0,"byteOffset":9652,"byteLength":12},{"buffer":0,"byteOffset":9664,"byteLength":36},{"buffer":0,"byteOffset":9700,"byteLength":44},{"buffer":0,"byteOffset":9744,"byteLength":176},{"buffer":0,"byteOffset":9920,"byteLength":16},{"buffer":0,"byteOffset":9936,"byteLength":48},{"buffer":0,"byteOffset":9984,"byteLength":12},{"buffer":0,"byteOffset":9996,"byteLength":48},{"buffer":0,"byteOffset":10044,"byteLength":12},{"buffer":0,"byteOffset":10056,"byteLength":48},{"buffer":0,"byteOffset":10104,"byteLength":12},{"buffer":0,"byteOffset":10116,"byteLength":36}],"buffers":[{"byteLength":10152,"uri":"data:application/octet-stream;base64,"}],"accessors":[{"bufferView":0,"componentType":5126,"count":24,"max":[-0.03125,0.375,-0.03125],"min":[-0.0625,0,-0.0625],"type":"VEC3"},{"bufferView":1,"componentType":5126,"count":24,"max":[1,1,1],"min":[-1,-1,-1],"type":"VEC3"},{"bufferView":2,"componentType":5126,"count":24,"max":[0.515625,0.71875],"min":[0.03125,0],"type":"VEC2"},{"bufferView":3,"componentType":5123,"count":36,"max":[23],"min":[0],"type":"SCALAR"},{"bufferView":4,"componentType":5126,"count":24,"max":[-0.03125,0.375,-0.03125],"min":[-0.0625,0,-0.0625],"type":"VEC3"},{"bufferView":5,"componentType":5126,"count":24,"max":[1,1,1],"min":[-1,-1,-1],"type":"VEC3"},{"bufferView":6,"componentType":5126,"count":24,"max":[0.453125,0.625],"min":[0.15625,0.25],"type":"VEC2"},{"bufferView":7,"componentType":5123,"count":36,"max":[23],"min":[0],"type":"SCALAR"},{"bufferView":8,"componentType":5126,"count":24,"max":[-0.03125,0.046875,0.0625],"min":[-0.0625,0,-0.9375],"type":"VEC3"},{"bufferView":9,"componentType":5126,"count":24,"max":[1,1,1],"min":[-1,-1,-1],"type":"VEC3"},{"bufferView":10,"componentType":5126,"count":24,"max":[0.5,0.875],"min":[0,0.15625],"type":"VEC2"},{"bufferView":11,"componentType":5123,"count":36,"max":[23],"min":[0],"type":"SCALAR"},{"bufferView":12,"componentType":5126,"count":24,"max":[-0.03125,0.046875,0.0625],"min":[-0.0625,0,-0.9375],"type":"VEC3"},{"bufferView":13,"componentType":5126,"count":24,"max":[1,1,1],"min":[-1,-1,-1],"type":"VEC3"},{"bufferView":14,"componentType":5126,"count":24,"max":[0.5,0.875],"min":[0,0.03125],"type":"VEC2"},{"bufferView":15,"componentType":5123,"count":36,"max":[23],"min":[0],"type":"SCALAR"},{"bufferView":16,"componentType":5126,"count":24,"max":[0.0625,0.15625,0.1875],"min":[-0.0625,0,-0.0625],"type":"VEC3"},{"bufferView":17,"componentType":5126,"count":24,"max":[0.9828721880912781,0.9161573052406311,0.7808688282966614],"min":[-0.9380415081977844,-1,-1],"type":"VEC3"},{"bufferView":18,"componentType":5126,"count":24,"max":[0.625,0.5473312735557556],"min":[0.0004511188599281013,0.125],"type":"VEC2"},{"bufferView":19,"componentType":5123,"count":36,"max":[23],"min":[0],"type":"SCALAR"},{"bufferView":20,"componentType":5126,"count":120,"max":[0.125,0.0625,0.125],"min":[-0.125,0,-0.125],"type":"VEC3"},{"bufferView":21,"componentType":5126,"count":120,"max":[1,1,1],"min":[-1,-1,-1],"type":"VEC3"},{"bufferView":22,"componentType":5126,"count":120,"max":[0.6439906358718872,0.53125],"min":[0,0],"type":"VEC2"},{"bufferView":23,"componentType":5123,"count":144,"max":[119],"min":[0],"type":"SCALAR"},{"bufferView":24,"componentType":5126,"count":6,"max":[2.0833332538604736],"min":[0],"type":"SCALAR"},{"bufferView":25,"componentType":5126,"count":6,"max":[0.41949376463890076,0,0,1],"min":[0,0,0,0.9077582359313965],"type":"VEC4"},{"bufferView":26,"componentType":5126,"count":5,"max":[2.0833332538604736],"min":[0],"type":"SCALAR"},{"bufferView":27,"componentType":5126,"count":5,"max":[0,0.28125,0],"min":[0,0.09375,0],"type":"VEC3"},{"bufferView":28,"componentType":5126,"count":8,"max":[2.0833332538604736],"min":[0],"type":"SCALAR"},{"bufferView":29,"componentType":5126,"count":8,"max":[0.3735029697418213,0,0,1],"min":[-0.7798844575881958,0,0,0.6259234547615051],"type":"VEC4"},{"bufferView":30,"componentType":5126,"count":5,"max":[1.9166666269302368],"min":[0],"type":"SCALAR"},{"bufferView":31,"componentType":5126,"count":5,"max":[-0.0625,0.06878072023391724,-0.05783754959702492],"min":[-0.0625,-0.1366739273071289,-0.2687241733074188],"type":"VEC3"},{"bufferView":32,"componentType":5126,"count":3,"max":[1.7083333730697632],"min":[0],"type":"SCALAR"},{"bufferView":33,"componentType":5126,"count":3,"max":[0,0,0,1],"min":[-0.537299633026123,0,0,0.8433914184570312],"type":"VEC4"},{"bufferView":34,"componentType":5126,"count":30,"max":[1.7083333730697632],"min":[0],"type":"SCALAR"},{"bufferView":35,"componentType":5126,"count":30,"max":[0,0.165431946516037,0.4368433952331543],"min":[0,-0.6850544810295105,-0.08617451786994934],"type":"VEC3"},{"bufferView":36,"componentType":5126,"count":6,"max":[0.75],"min":[0],"type":"SCALAR"},{"bufferView":37,"componentType":5126,"count":6,"max":[0.6343932747840881,0,0,1],"min":[0,0,0,0.7730104327201843],"type":"VEC4"},{"bufferView":38,"componentType":5126,"count":14,"max":[0.75],"min":[0],"type":"SCALAR"},{"bufferView":39,"componentType":5126,"count":14,"max":[0,0.09375,0.25],"min":[0,0.09375,0],"type":"VEC3"},{"bufferView":40,"componentType":5126,"count":3,"max":[0.75],"min":[0],"type":"SCALAR"},{"bufferView":41,"componentType":5126,"count":3,"max":[0,0,0.17419704794883728],"min":[0,-0.03051900491118431,0],"type":"VEC3"},{"bufferView":42,"componentType":5126,"count":11,"max":[0.7083333134651184],"min":[0],"type":"SCALAR"},{"bufferView":43,"componentType":5126,"count":11,"max":[0,0.004491401370614767,0.23678141832351685,1],"min":[-0.21023690700531006,-0.02071569114923477,0,0.9483174085617065],"type":"VEC4"},{"bufferView":44,"componentType":5126,"count":4,"max":[0.7083333134651184],"min":[0],"type":"SCALAR"},{"bufferView":45,"componentType":5126,"count":4,"max":[0,0.09375,0.1875],"min":[0,-0.03125,-0.5625],"type":"VEC3"},{"bufferView":46,"componentType":5126,"count":3,"max":[0.7083333134651184],"min":[0],"type":"SCALAR"},{"bufferView":47,"componentType":5126,"count":3,"max":[0.1736481785774231,0,0,1],"min":[0,0,0,0.9848077297210693],"type":"VEC4"},{"bufferView":48,"componentType":5126,"count":3,"max":[0.7083333134651184],"min":[0],"type":"SCALAR"},{"bufferView":49,"componentType":5126,"count":3,"max":[0.19509032368659973,0,0,1],"min":[0,0,0,0.9807852506637573],"type":"VEC4"},{"bufferView":50,"componentType":5126,"count":3,"max":[0.7083333134651184],"min":[0],"type":"SCALAR"},{"bufferView":51,"componentType":5126,"count":3,"max":[0,0,0],"min":[0,-0.03125,0],"type":"VEC3"}],"materials":[{"pbrMetallicRoughness":{"metallicFactor":0,"roughnessFactor":1,"baseColorTexture":{"index":0}},"alphaMode":"MASK","alphaCutoff":0.05,"doubleSided":true}],"textures":[{"sampler":0,"source":0,"name":"railgun_melee.png"}],"samplers":[{"magFilter":9728,"minFilter":9728,"wrapS":33071,"wrapT":33071}],"images":[{"mimeType":"image/png","uri":"data:image/png;base64,"}],"meshes":[{"primitives":[{"mode":4,"attributes":{"POSITION":0,"NORMAL":1,"TEXCOORD_0":2},"indices":3,"material":0}]},{"primitives":[{"mode":4,"attributes":{"POSITION":4,"NORMAL":5,"TEXCOORD_0":6},"indices":7,"material":0}]},{"primitives":[{"mode":4,"attributes":{"POSITION":8,"NORMAL":9,"TEXCOORD_0":10},"indices":11,"material":0}]},{"primitives":[{"mode":4,"attributes":{"POSITION":12,"NORMAL":13,"TEXCOORD_0":14},"indices":15,"material":0}]},{"primitives":[{"mode":4,"attributes":{"POSITION":16,"NORMAL":17,"TEXCOORD_0":18},"indices":19,"material":0}]},{"primitives":[{"mode":4,"attributes":{"POSITION":20,"NORMAL":21,"TEXCOORD_0":22},"indices":23,"material":0}]}],"animations":[{"name":"reload","samplers":[{"input":24,"output":25,"interpolation":"LINEAR"},{"input":26,"output":27,"interpolation":"LINEAR"},{"input":28,"output":29,"interpolation":"LINEAR"},{"input":30,"output":31,"interpolation":"LINEAR"},{"input":32,"output":33,"interpolation":"LINEAR"},{"input":34,"output":35,"interpolation":"LINEAR"}],"channels":[{"sampler":0,"target":{"node":8,"path":"rotation"}},{"sampler":1,"target":{"node":8,"path":"translation"}},{"sampler":2,"target":{"node":5,"path":"rotation"}},{"sampler":3,"target":{"node":5,"path":"translation"}},{"sampler":4,"target":{"node":7,"path":"rotation"}},{"sampler":5,"target":{"node":7,"path":"translation"}}]},{"name":"attack","samplers":[{"input":36,"output":37,"interpolation":"LINEAR"},{"input":38,"output":39,"interpolation":"LINEAR"},{"input":40,"output":41,"interpolation":"LINEAR"}],"channels":[{"sampler":0,"target":{"node":8,"path":"rotation"}},{"sampler":1,"target":{"node":8,"path":"translation"}},{"sampler":2,"target":{"node":7,"path":"translation"}}]},{"name":"melee","samplers":[{"input":42,"output":43,"interpolation":"LINEAR"},{"input":44,"output":45,"interpolation":"LINEAR"},{"input":46,"output":47,"interpolation":"LINEAR"},{"input":48,"output":49,"interpolation":"LINEAR"},{"input":50,"output":51,"interpolation":"LINEAR"}],"channels":[{"sampler":0,"target":{"node":8,"path":"rotation"}},{"sampler":1,"target":{"node":8,"path":"translation"}},{"sampler":2,"target":{"node":5,"path":"rotation"}},{"sampler":3,"target":{"node":7,"path":"rotation"}},{"sampler":4,"target":{"node":7,"path":"translation"}}]}]}