{"asset":{"version":"2.0","generator":"Blockbench 4.7.1 glTF exporter"},"scenes":[{"nodes":[8],"name":"blockbench_export"}],"scene":0,"nodes":[{"rotation":[0.3624380382837017,0,0,0.9320078692827984],"translation":[0.015625,0,0.015625],"name":"handle","mesh":0},{"translation":[-0.0625,0,0],"name":"left"},{"rotation":[-0.3624380382837015,0,0,0.9320078692827986],"translation":[-0.03125,-0.078125,0.09375],"name":"right","mesh":1},{"name":"right","children":[2]},{"translation":[0.03125,0.03125,0.125],"name":"joycons","children":[1,3]},{"translation":[-0.046875,0,0],"name":"rbarrel","mesh":2},{"translation":[0.046875,0.046875,-0.40625],"name":"barrel","children":[5]},{"translation":[0.03125,0,0.046875],"name":"gun","children":[0,4,6]},{"children":[7]}],"bufferViews":[{"buffer":0,"byteOffset":0,"byteLength":288,"target":34962,"byteStride":12},{"buffer":0,"byteOffset":288,"byteLength":288,"target":34962,"byteStride":12},{"buffer":0,"byteOffset":576,"byteLength":192,"target":34962,"byteStride":8},{"buffer":0,"byteOffset":768,"byteLength":72,"target":34963},{"buffer":0,"byteOffset":840,"byteLength":288,"target":34962,"byteStride":12},{"buffer":0,"byteOffset":1128,"byteLength":288,"target":34962,"byteStride":12},{"buffer":0,"byteOffset":1416,"byteLength":192,"target":34962,"byteStride":8},{"buffer":0,"byteOffset":1608,"byteLength":72,"target":34963},{"buffer":0,"byteOffset":1680,"byteLength":288,"target":34962,"byteStride":12},{"buffer":0,"byteOffset":1968,"byteLength":288,"target":34962,"byteStride":12},{"buffer":0,"byteOffset":2256,"byteLength":192,"target":34962,"byteStride":8},{"buffer":0,"byteOffset":2448,"byteLength":72,"target":34963},{"buffer":0,"byteOffset":2520,"byteLength":64},{"buffer":0,"byteOffset":2584,"byteLength":256},{"buffer":0,"byteOffset":2840,"byteLength":64},{"buffer":0,"byteOffset":2904,"byteLength":192},{"buffer":0,"byteOffset":3096,"byteLength":16},{"buffer":0,"byteOffset":3112,"byteLength":64},{"buffer":0,"byteOffset":3176,"byteLength":16},{"buffer":0,"byteOffset":3192,"byteLength":48},{"buffer":0,"byteOffset":3240,"byteLength":12},{"buffer":0,"byteOffset":3252,"byteLength":36},{"buffer":0,"byteOffset":3288,"byteLength":12},{"buffer":0,"byteOffset":3300,"byteLength":36},{"buffer":0,"byteOffset":3336,"byteLength":16},{"buffer":0,"byteOffset":3352,"byteLength":64},{"buffer":0,"byteOffset":3416,"byteLength":76},{"buffer":0,"byteOffset":3492,"byteLength":304},{"buffer":0,"byteOffset":3796,"byteLength":60},{"buffer":0,"byteOffset":3856,"byteLength":180},{"buffer":0,"byteOffset":4036,"byteLength":16},{"buffer":0,"byteOffset":4052,"byteLength":64},{"buffer":0,"byteOffset":4116,"byteLength":16},{"buffer":0,"byteOffset":4132,"byteLength":48},{"buffer":0,"byteOffset":4180,"byteLength":160},{"buffer":0,"byteOffset":4340,"byteLength":480},{"buffer":0,"byteOffset":4820,"byteLength":96},{"buffer":0,"byteOffset":4916,"byteLength":288},{"buffer":0,"byteOffset":5204,"byteLength":60},{"buffer":0,"byteOffset":5264,"byteLength":240},{"buffer":0,"byteOffset":5504,"byteLength":28},{"buffer":0,"byteOffset":5532,"byteLength":84}],"buffers":[{"byteLength":5616,"uri":"data:application/octet-stream;base64,"}],"accessors":[{"bufferView":0,"componentType":5126,"count":24,"max":[-0.03125,0.0625,0.1875],"min":[-0.0625,0,-0.0625],"type":"VEC3"},{"bufferView":1,"componentType":5126,"count":24,"max":[1,1,1],"min":[-1,-1,-1],"type":"VEC3"},{"bufferView":2,"componentType":5126,"count":24,"max":[0.6875,0.6875],"min":[0,0],"type":"VEC2"},{"bufferView":3,"componentType":5123,"count":36,"max":[23],"min":[0],"type":"SCALAR"},{"bufferView":4,"componentType":5126,"count":24,"max":[0,0.1875,-0.03125],"min":[-0.0625,0,-0.0625],"type":"VEC3"},{"bufferView":5,"componentType":5126,"count":24,"max":[1,1,1],"min":[-1,-1,-1],"type":"VEC3"},{"bufferView":6,"componentType":5126,"count":24,"max":[0.6875,0.75],"min":[0.4375,0.125],"type":"VEC2"},{"bufferView":7,"componentType":5123,"count":36,"max":[23],"min":[0],"type":"SCALAR"},{"bufferView":8,"componentType":5126,"count":24,"max":[0,0.0625,0.4375],"min":[-0.0625,0,-0.0625],"type":"VEC3"},{"bufferView":9,"componentType":5126,"count":24,"max":[1,1,1],"min":[-1,-1,-1],"type":"VEC3"},{"bufferView":10,"componentType":5126,"count":24,"max":[0.625,0.75],"min":[0.125,0],"type":"VEC2"},{"bufferView":11,"componentType":5123,"count":36,"max":[23],"min":[0],"type":"SCALAR"},{"bufferView":12,"componentType":5126,"count":16,"max":[0.875],"min":[0],"type":"SCALAR"},{"bufferView":13,"componentType":5126,"count":16,"max":[0.6473147869110107,0,0,1],"min":[0,0,0,0.7622227668762207],"type":"VEC4"},{"bufferView":14,"componentType":5126,"count":16,"max":[0.875],"min":[0],"type":"SCALAR"},{"bufferView":15,"componentType":5126,"count":16,"max":[0.03125,0,0.109375],"min":[0.03125,0,0.025702008977532387],"type":"VEC3"},{"bufferView":16,"componentType":5126,"count":4,"max":[0.6666666865348816],"min":[0],"type":"SCALAR"},{"bufferView":17,"componentType":5126,"count":4,"max":[0.2798290252685547,0,0,1],"min":[0,0,0,0.9600498676300049],"type":"VEC4"},{"bufferView":18,"componentType":5126,"count":4,"max":[0.6666666865348816],"min":[0],"type":"SCALAR"},{"bufferView":19,"componentType":5126,"count":4,"max":[0.03125,0.0935121700167656,0.13044723868370056],"min":[0.03125,0.03125,0.125],"type":"VEC3"},{"bufferView":20,"componentType":5126,"count":3,"max":[0.7916666865348816],"min":[0],"type":"SCALAR"},{"bufferView":21,"componentType":5126,"count":3,"max":[-0.0625,0,0],"min":[-0.09375,0,0],"type":"VEC3"},{"bufferView":22,"componentType":5126,"count":3,"max":[0.7916666865348816],"min":[0],"type":"SCALAR"},{"bufferView":23,"componentType":5126,"count":3,"max":[0.03125,0,0],"min":[0,0,0],"type":"VEC3"},{"bufferView":24,"componentType":5126,"count":4,"max":[0.25],"min":[0],"type":"SCALAR"},{"bufferView":25,"componentType":5126,"count":4,"max":[0,0,0,1],"min":[-0.2079116851091385,0,0,0.9781476259231567],"type":"VEC4"},{"bufferView":26,"componentType":5126,"count":19,"max":[2.625],"min":[0],"type":"SCALAR"},{"bufferView":27,"componentType":5126,"count":19,"max":[0.5434186458587646,0,0,1],"min":[-0.04361938685178757,0,0,0.8394618034362793],"type":"VEC4"},{"bufferView":28,"componentType":5126,"count":15,"max":[2.625],"min":[0],"type":"SCALAR"},{"bufferView":29,"componentType":5126,"count":15,"max":[0.03125,0.125,0.2356249988079071],"min":[0.03125,0,0.046875],"type":"VEC3"},{"bufferView":30,"componentType":5126,"count":4,"max":[2.2916667461395264],"min":[0],"type":"SCALAR"},{"bufferView":31,"componentType":5126,"count":4,"max":[0,0,0,1],"min":[0,0,0,1],"type":"VEC4"},{"bufferView":32,"componentType":5126,"count":4,"max":[2.2916667461395264],"min":[0],"type":"SCALAR"},{"bufferView":33,"componentType":5126,"count":4,"max":[0.03125,0.055762991309165955,0.14438235759735107],"min":[0.03125,0.03125,0.125],"type":"VEC3"},{"bufferView":34,"componentType":5126,"count":40,"max":[2.625],"min":[0],"type":"SCALAR"},{"bufferView":35,"componentType":5126,"count":40,"max":[-0.057876840233802795,0.00460556847974658,0.0004029350238852203],"min":[-0.15625,-0.06686567515134811,-0.005849988665431738],"type":"VEC3"},{"bufferView":36,"componentType":5126,"count":24,"max":[1.6666666269302368],"min":[0],"type":"SCALAR"},{"bufferView":37,"componentType":5126,"count":24,"max":[0.09375,0,0],"min":[0,-0.06686567515134811,-0.005849988665431738],"type":"VEC3"},{"bufferView":38,"componentType":5126,"count":15,"max":[2.5],"min":[0],"type":"SCALAR"},{"bufferView":39,"componentType":5126,"count":15,"max":[0,0,0,1],"min":[-0.6259234547615051,0,0,0.7798844575881958],"type":"VEC4"},{"bufferView":40,"componentType":5126,"count":7,"max":[2.5],"min":[0],"type":"SCALAR"},{"bufferView":41,"componentType":5126,"count":7,"max":[0.046875,0.046875,-0.1489984095096588],"min":[0.046875,-0.2736898958683014,-0.40625],"type":"VEC3"}],"materials":[{"pbrMetallicRoughness":{"metallicFactor":0,"roughnessFactor":1,"baseColorTexture":{"index":0}},"alphaMode":"MASK","alphaCutoff":0.05,"doubleSided":true}],"textures":[{"sampler":0,"source":0,"name":"rogue_controllers.png"}],"samplers":[{"magFilter":9728,"minFilter":9728,"wrapS":33071,"wrapT":33071}],"images":[{"mimeType":"image/png","uri":"data:image/png;base64,"}],"meshes":[{"primitives":[{"mode":4,"attributes":{"POSITION":0,"NORMAL":1,"TEXCOORD_0":2},"indices":3,"material":0}]},{"primitives":[{"mode":4,"attributes":{"POSITION":4,"NORMAL":5,"TEXCOORD_0":6},"indices":7,"material":0}]},{"primitives":[{"mode":4,"attributes":{"POSITION":8,"NORMAL":9,"TEXCOORD_0":10},"indices":11,"material":0}]}],"animations":[{"name":"attack","samplers":[{"input":12,"output":13,"interpolation":"LINEAR"},{"input":14,"output":15,"interpolation":"LINEAR"},{"input":16,"output":17,"interpolation":"LINEAR"},{"input":18,"output":19,"interpolation":"LINEAR"},{"input":20,"output":21,"interpolation":"LINEAR"},{"input":22,"output":23,"interpolation":"LINEAR"},{"input":24,"output":25,"interpolation":"LINEAR"}],"channels":[{"sampler":0,"target":{"node":7,"path":"rotation"}},{"sampler":1,"target":{"node":7,"path":"translation"}},{"sampler":2,"target":{"node":4,"path":"rotation"}},{"sampler":3,"target":{"node":4,"path":"translation"}},{"sampler":4,"target":{"node":1,"path":"translation"}},{"sampler":5,"target":{"node":3,"path":"translation"}},{"sampler":6,"target":{"node":6,"path":"rotation"}}]},{"name":"reload","samplers":[{"input":26,"output":27,"interpolation":"LINEAR"},{"input":28,"output":29,"interpolation":"LINEAR"},{"input":30,"output":31,"interpolation":"LINEAR"},{"input":32,"output":33,"interpolation":"LINEAR"},{"input":34,"output":35,"interpolation":"LINEAR"},{"input":36,"output":37,"interpolation":"LINEAR"},{"input":38,"output":39,"interpolation":"LINEAR"},{"input":40,"output":41,"interpolation":"LINEAR"}],"channels":[{"sampler":0,"target":{"node":7,"path":"rotation"}},{"sampler":1,"target":{"node":7,"path":"translation"}},{"sampler":2,"target":{"node":4,"path":"rotation"}},{"sampler":3,"target":{"node":4,"path":"translation"}},{"sampler":4,"target":{"node":1,"path":"translation"}},{"sampler":5,"target":{"node":3,"path":"translation"}},{"sampler":6,"target":{"node":6,"path":"rotation"}},{"sampler":7,"target":{"node":6,"path":"translation"}}]}]}